<?xml version="1.0" encoding="UTF-8" standalone="no"?>
<!DOCTYPE svg PUBLIC "-//W3C//DTD SVG 1.1//EN"
  "http://www.w3.org/Graphics/SVG/1.1/DTD/svg11.dtd">
<svg version="1.1" xmlns="http://www.w3.org/2000/svg"
     xmlns:xlink="http://www.w3.org/1999/xlink"
     preserveAspectRatio="xMidYMid meet" viewBox="0 0 494 120" width="494"
     height="120">
  <defs>
    <path
      d="M444.09 111.6C443.88 108.89 444.73 107.91 447.57 108.05C454.27 108.38 460.99 107.93 467.58 106.72C475.04 105.15 480.37 98.57 480.38 90.95C480.52 75.39 480.38 59.75 480.45 44.19C480.45 42.66 480.59 41.06 478.28 41.2C471.66 41.54 465.09 40.92 458.44 41.75C447.34 43.21 442.11 55.14 443.78 64.85C446.16 78.84 461.58 83.21 473.37 76.71C476.1 75.25 476.3 75.81 476.3 78.46C476.3 86.69 474 89.2 464.32 89.98C450.33 91.03 436.8 82.98 433.48 68.41C429.64 51.73 438.28 36.24 455.8 31.71C457.06 31.47 458.35 31.38 459.64 31.43C461.78 31.43 472.49 31.43 491.77 31.43C491.77 67.86 491.77 88.1 491.77 92.15C491.57 92.43 491.22 92.7 491.22 92.99C489.74 105.55 482 112.52 470.7 116.57C467.98 117.57 465.05 117.34 462.47 118.67C456.23 118.6 450.24 118.6 444.16 118.6C444.16 116.29 444.3 113.93 444.09 111.6Z"
      id="b3opOKcvZm"></path>
    <path
      d="M303.47 53.63C302.28 55.62 302.14 56.56 304.66 57.54C311.65 60.32 314.98 66.19 316.31 73.31C317.22 78.12 316.95 83.01 317.01 87.89C317.01 89.42 316.52 90.05 315.01 89.89C314.94 89.89 314.38 89.89 314.31 89.89C306.08 90.17 305.87 90.17 306.08 81.89C306.49 66.41 294.77 62.5 283.61 63.75C281.61 63.96 281.61 65.08 281.61 66.62C281.61 73.38 281.54 80.09 281.68 86.85C281.75 89.29 280.98 89.99 278.54 89.92C270.86 89.85 270.86 89.99 270.86 82.39C270.86 57.26 270.93 32.21 270.79 7.09C270.79 4.36 271.43 3.52 274.21 3.52C281.53 3.66 281.53 3.52 281.53 10.78C281.53 24.04 281.6 37.31 281.47 50.5C281.47 52.93 281.89 53.57 284.75 54.05C291.24 55.17 293.71 51.75 295.98 46.79C298.21 42.04 300.98 37.66 303.38 32.98C303.97 31.42 305.57 30.48 307.22 30.74C310.23 31.01 313.17 30.87 316.73 30.87C312.12 38.87 307.86 46.29 303.47 53.63Z"
      id="j3LwYBYqO"></path>
    <path
      d="M188.05 29.82L189.34 29.96L190.61 30.16L191.86 30.41L193.1 30.71L194.31 31.06L195.49 31.46L196.66 31.91L197.8 32.4L198.91 32.94L200 33.52L201.06 34.14L202.09 34.81L203.09 35.52L204.05 36.27L204.99 37.05L205.9 37.88L206.76 38.74L207.6 39.63L208.4 40.56L209.16 41.53L209.88 42.52L210.56 43.55L211.21 44.61L211.81 45.7L212.37 46.82L212.88 47.96L213.35 49.13L213.78 50.33L214.16 51.55L214.49 52.79L214.77 54.05L215.01 55.34L215.19 56.65L215.32 57.97L215.4 59.31L215.42 60.67L215.39 62.04L215.3 63.38L215.16 64.71L214.97 66.01L214.73 67.3L214.44 68.56L214.11 69.81L213.72 71.02L213.29 72.21L212.81 73.38L212.29 74.52L211.72 75.63L211.11 76.71L210.46 77.77L209.77 78.79L209.04 79.77L208.28 80.73L207.47 81.65L206.63 82.54L205.75 83.39L204.84 84.2L203.9 84.97L202.92 85.71L201.91 86.4L200.88 87.06L199.81 87.67L198.71 88.23L197.59 88.76L196.44 89.23L195.26 89.66L194.06 90.05L192.84 90.38L191.6 90.67L190.33 90.9L189.04 91.08L187.74 91.21L186.41 91.29L185.07 91.31L183.75 91.27L182.44 91.18L181.15 91.03L179.88 90.83L178.63 90.58L177.4 90.27L176.19 89.92L175.01 89.52L173.85 89.07L172.71 88.58L171.61 88.03L170.53 87.45L169.47 86.82L168.45 86.15L167.46 85.44L166.5 84.69L165.57 83.9L164.67 83.07L163.81 82.2L162.98 81.3L162.19 80.36L161.44 79.39L160.73 78.39L160.05 77.35L159.42 76.29L158.82 75.19L158.27 74.07L157.76 72.92L157.3 71.74L156.88 70.53L156.51 69.31L156.18 68.05L155.9 66.78L155.67 65.49L155.5 64.17L155.37 62.84L155.3 61.48L155.27 60.12L155.31 58.76L155.39 57.43L155.53 56.11L155.72 54.81L155.96 53.53L156.25 52.28L156.58 51.04L156.97 49.83L157.4 48.65L157.88 47.49L158.4 46.36L158.96 45.25L159.57 44.18L160.21 43.13L160.9 42.11L161.63 41.13L162.39 40.18L163.19 39.26L164.03 38.38L164.9 37.54L165.81 36.73L166.75 35.96L167.72 35.23L168.72 34.54L169.75 33.89L170.81 33.28L171.9 32.72L173.02 32.2L174.16 31.72L175.32 31.3L176.51 30.92L177.73 30.59L178.96 30.31L180.21 30.08L181.49 29.9L182.78 29.77L184.09 29.7L185.41 29.68L186.74 29.72L188.05 29.82ZM183.48 40.15L182.43 40.27L181.39 40.44L180.38 40.66L179.39 40.94L178.43 41.27L177.49 41.64L176.58 42.07L175.69 42.54L174.84 43.06L174.02 43.63L173.23 44.25L172.48 44.91L171.77 45.61L171.09 46.36L170.45 47.16L169.85 48L169.29 48.88L168.78 49.8L168.31 50.76L167.84 51.88L167.43 53.03L167.09 54.2L166.81 55.38L166.59 56.57L166.43 57.77L166.33 58.97L166.29 60.17L166.31 61.38L166.39 62.57L166.53 63.76L166.72 64.93L166.97 66.08L167.27 67.22L167.63 68.33L168.04 69.42L168.51 70.47L169.03 71.5L169.6 72.48L170.22 73.43L170.89 74.33L171.61 75.18L172.38 75.98L173.2 76.73L174.07 77.42L174.29 77.58L174.5 77.73L174.72 77.88L174.94 78.02L175.17 78.16L175.39 78.3L175.62 78.43L175.85 78.56L176.08 78.69L176.31 78.81L176.55 78.93L176.79 79.05L177.03 79.16L177.27 79.27L177.51 79.38L177.75 79.48L178 79.57L178.24 79.67L178.49 79.76L178.74 79.84L178.99 79.93L179.24 80.01L179.5 80.08L179.75 80.15L180.01 80.22L181.61 80.57L183.17 80.81L184.71 80.94L186.21 80.96L187.68 80.87L189.1 80.68L190.48 80.39L191.81 80L193.1 79.52L194.33 78.94L195.5 78.27L196.62 77.51L197.67 76.67L198.66 75.74L199.58 74.73L200.42 73.65L201.2 72.48L201.89 71.25L202.5 69.94L203.03 68.56L203.47 67.12L203.82 65.62L204.08 64.05L204.24 62.42L204.3 60.74L204.28 59.5L204.22 58.28L204.1 57.09L203.93 55.93L203.7 54.8L203.43 53.7L203.12 52.63L202.75 51.6L202.34 50.61L201.88 49.65L201.38 48.72L200.83 47.84L200.24 47L199.61 46.2L198.93 45.44L198.22 44.73L197.47 44.07L196.68 43.45L195.85 42.88L194.99 42.36L194.09 41.9L193.16 41.48L192.19 41.13L191.19 40.82L190.16 40.58L189.01 40.37L187.88 40.21L186.76 40.11L185.65 40.07L184.56 40.08L183.48 40.15Z"
      id="a4Nlyrjgp"></path>
    <path
      d="M392.31 29.94L393.61 29.97L394.91 30.06L396.18 30.22L397.44 30.43L398.68 30.7L399.89 31.03L401.09 31.4L402.26 31.84L403.41 32.32L404.54 32.85L405.64 33.43L406.71 34.06L407.76 34.73L408.77 35.45L409.76 36.21L410.71 37.01L411.63 37.85L412.51 38.72L413.36 39.64L414.17 40.59L414.95 41.57L415.69 42.58L416.38 43.63L417.04 44.7L417.65 45.81L418.22 46.93L418.74 48.09L419.22 49.27L419.65 50.47L420.04 51.69L420.37 52.93L420.65 54.18L420.88 55.46L421.06 56.75L421.18 58.05L421.25 59.36L421.26 60.68L421.22 62.01L421.13 63.32L420.99 64.61L420.8 65.89L420.57 67.15L420.28 68.39L419.95 69.62L419.58 70.82L419.16 72L418.7 73.16L418.19 74.29L417.65 75.39L417.06 76.48L416.43 77.53L415.76 78.55L415.05 79.54L414.3 80.5L413.51 81.43L412.69 82.33L411.83 83.18L410.93 84.01L410 84.79L409.04 85.54L408.04 86.24L407.01 86.91L405.95 87.53L404.86 88.11L403.73 88.64L402.58 89.13L401.4 89.57L400.19 89.96L398.95 90.3L397.69 90.59L396.39 90.83L395.08 91.01L393.74 91.14L392.37 91.21L390.99 91.23L389.64 91.2L388.32 91.11L387.02 90.97L385.74 90.78L384.48 90.53L383.24 90.24L382.03 89.9L380.84 89.5L379.68 89.07L378.55 88.58L377.44 88.05L376.36 87.47L375.3 86.86L374.28 86.2L373.29 85.49L372.33 84.75L371.41 83.97L370.51 83.15L369.66 82.29L368.83 81.4L368.05 80.47L367.3 79.51L366.59 78.51L365.92 77.48L365.28 76.42L364.69 75.33L364.14 74.22L363.63 73.07L363.17 71.89L362.75 70.69L362.38 69.47L362.05 68.21L361.77 66.94L361.54 65.64L361.35 64.33L361.22 62.99L361.14 61.63L361.1 60.26L361.13 58.9L361.21 57.56L361.34 56.24L361.53 54.94L361.77 53.65L362.06 52.39L362.4 51.14L362.79 49.92L363.22 48.72L363.71 47.55L364.23 46.41L364.8 45.29L365.42 44.2L366.07 43.14L366.77 42.11L367.5 41.12L368.27 40.16L369.08 39.23L369.92 38.34L370.8 37.49L371.71 36.67L372.65 35.9L373.62 35.17L374.62 34.48L375.65 33.83L376.7 33.23L377.78 32.67L378.88 32.17L380.01 31.71L381.16 31.3L382.33 30.94L383.52 30.63L384.72 30.38L385.95 30.18L387.19 30.04L388.44 29.96L389.71 29.93L390.99 29.96L392.31 29.94ZM387.02 40.54L385.73 40.78L384.49 41.12L383.3 41.54L382.16 42.06L381.07 42.65L380.05 43.33L379.08 44.09L378.16 44.91L377.31 45.8L376.52 46.76L375.79 47.78L375.13 48.85L374.53 49.98L374 51.16L373.54 52.38L373.14 53.64L372.82 54.94L372.57 56.27L372.4 57.63L372.3 59.02L372.28 60.42L372.33 61.94L372.46 63.4L372.67 64.82L372.94 66.2L373.28 67.52L373.69 68.79L374.17 70.01L374.71 71.17L375.32 72.27L375.98 73.32L376.71 74.31L377.5 75.23L378.35 76.09L379.25 76.89L380.21 77.62L381.22 78.28L382.28 78.87L383.39 79.39L384.55 79.83L385.76 80.2L387.02 80.5L388.32 80.71L389.66 80.85L391.04 80.9L392.5 80.87L393.9 80.74L395.26 80.51L396.56 80.19L397.81 79.79L399.01 79.3L400.16 78.74L401.25 78.1L402.29 77.38L403.26 76.6L404.18 75.76L405.04 74.85L405.83 73.89L406.57 72.88L407.23 71.82L407.84 70.72L408.38 69.57L408.84 68.39L409.25 67.17L409.58 65.93L409.84 64.66L410.02 63.37L410.14 62.06L410.17 60.74L410.13 59.29L410 57.86L409.81 56.46L409.54 55.09L409.2 53.76L408.79 52.47L408.31 51.23L407.76 50.04L407.15 48.9L406.48 47.81L405.75 46.78L404.95 45.82L404.09 44.92L403.18 44.09L402.21 43.33L401.18 42.65L400.11 42.06L398.97 41.54L397.79 41.12L396.56 40.78L395.29 40.54L393.96 40.4L392.6 40.37L391.18 40.44L389.75 40.37L388.36 40.4L387.02 40.54Z"
      id="c2ZkpQDAg0"></path>
    <path
      d="M340.79 65.7C340.84 68 341.15 70.29 341.7 72.53C342.54 76.53 346.52 79.45 351.47 79.38C354.4 79.38 354.89 80.5 354.89 83.08C354.82 90.19 354.89 89.98 347.89 89.35C336.45 88.35 331 81.82 330.31 70.52C329.03 49.3 330.17 28.01 329.67 6.8C329.6 4.49 330.37 3.51 332.87 3.44C340.61 3.24 340.86 3.44 340.86 10.99C340.86 19.64 340.86 28.36 340.86 37.09C340.86 46.64 340.93 56.13 340.79 65.7Z"
      id="fn7ihQSkG"></path>
    <path
      d="M227.05 49.44C228.37 37.85 233.96 32.16 245.61 31.16C250.73 30.73 255.8 30.94 260.97 30.8C262.63 30.73 263.13 31.44 263.2 33.04C263.68 41.36 263.75 41.27 255.52 41.36C252.37 41.36 249.24 41.29 246.09 41.57C241.41 42.05 239.09 44.36 238.1 48.97C237.6 51.83 237.39 54.73 237.46 57.63C237.46 67.4 237.39 77.16 237.53 86.93C237.53 89.17 237.03 89.93 234.67 89.93C226.5 89.93 226.5 90.07 226.5 81.77C226.63 77.91 226.63 73.95 226.63 68.91C226.84 63.19 226.28 56.35 227.05 49.44Z"
      id="b6yCKajWT"></path>
    <path
      d="M64.72 79.15C57.81 77.4 51.88 73.84 46.22 69.8C41.9 66.66 37.64 63.45 33.23 60.44C28.1 56.78 21.87 54.96 15.57 55.28C11.46 55.42 7.25 55.21 3.09 55.14C3.09 55.07 3.09 54.51 3.09 54.44C4.2 49.62 4.2 44.61 3.09 39.79C3.09 39.72 3.09 39.16 3.09 39.08C6.32 38.85 9.56 38.83 12.79 39.01C24.16 40.29 32.96 34.9 41.12 28.13C52.49 18.78 65 12.56 80.2 14.05C80.55 13.56 80.34 13.36 79.85 13.22C77.76 11.12 75.86 8.89 73.51 6.94C71.51 5.26 71.2 3.58 72.11 1.35C72.25 1.35 73.37 1.35 73.51 1.35C77.38 2.47 81.49 2.47 85.37 1.35C85.44 1.35 86 1.35 86.07 1.35C93.07 6.35 98.49 13.08 104.63 19.01C107.08 21.38 107.08 23.49 104.63 26C99.82 30.89 95.03 35.78 90.12 40.6C88.4 42.39 85.97 43.33 83.49 43.16C80.56 43.08 77.73 43.08 74.76 43.08C73.44 43.08 72.11 43.01 71.49 41.63C70.85 40.08 72.13 39.24 72.95 38.43C75.32 36.06 77.7 33.75 80.49 30.96C73.37 30.19 67.16 30.68 61.29 34.16C55.42 37.64 50.13 42.16 44.47 46.04C43.15 46.93 43.36 47.42 44.54 48.26C49.92 51.96 55.09 55.72 60.32 59.35C66.25 63.41 72.95 64.17 80.8 63.27C77.81 60.4 75.29 57.96 72.81 55.52C71.97 54.69 70.99 53.85 71.69 52.52C72.39 51.19 73.44 51.12 74.62 51.12C77.77 51.12 80.91 51.12 84.04 51.19C86.4 51.23 88.64 52.21 90.26 53.92C95.01 58.73 99.81 63.48 104.49 68.22C107.05 70.88 107.15 72.83 104.63 75.41C99.88 80.23 95.15 84.97 90.4 89.79C89.56 90.67 88.54 91.38 87.42 91.87C86.29 92.35 85.08 92.6 83.85 92.59C80.57 92.59 77.37 92.45 74.08 92.38C73.62 92.44 73.15 92.37 72.73 92.17C72.31 91.97 71.96 91.65 71.71 91.26C71.07 90.14 71.71 89.26 72.48 88.47C74.92 86.02 77.48 83.58 79.88 81.07C80.42 80.84 80.63 80.63 80.29 80.15C75.11 79.87 69.88 80.36 64.72 79.15Z"
      id="dbMxYJeCS"></path>
    <path
      d="M118.04 32.55C118.24 32.06 118.74 31.22 119.04 31.22C123.03 31.36 122.24 28.36 122.6 25.98C124.2 14.54 133.96 5.61 146.47 4.14C152.39 3.44 152.11 3.44 152.46 9.45C152.67 13.22 151.56 14.34 147.86 14.61C139.06 15.32 133.87 20.61 133.42 28.36C133.28 30.36 133.9 31.01 135.86 30.92C138.99 30.78 142.14 30.92 145.28 30.85C146.95 30.78 147.36 31.41 147.43 33.09C147.79 41.25 147.86 41.25 139.69 41.25C133.35 41.25 133.35 41.25 133.35 47.65C133.35 60.42 133.28 73.25 133.42 86.05C133.49 88.99 132.93 90.1 129.71 90.05C122.17 89.77 122.17 89.98 122.17 82.31C122.17 69.96 122.03 57.68 122.24 45.33C122.31 42.13 121.48 40.79 118.24 41.34C116.78 41.43 115.31 41.4 113.85 41.27C115.46 37.92 116.71 35.2 118.04 32.55Z"
      id="b1i6pGWDN"></path>
    <path d="M85.37 1.33L85.37 10.31L73.51 1.33L73.51 1.33L85.37 1.33Z"
          id="d1kLszp2fY"></path>
  </defs>
  <g>
    <g>
      <g>
        <use xlink:href="#b3opOKcvZm" opacity="1" fill="#dcdff0"
             fill-opacity="1"></use>
        <g>
          <use xlink:href="#b3opOKcvZm" opacity="1" fill-opacity="0"
               stroke="#000000" stroke-width="1" stroke-opacity="0"></use>
        </g>
      </g>
      <g>
        <use xlink:href="#j3LwYBYqO" opacity="1" fill="#44a6de"
             fill-opacity="1"></use>
        <g>
          <use xlink:href="#j3LwYBYqO" opacity="1" fill-opacity="0"
               stroke="#000000" stroke-width="1" stroke-opacity="0"></use>
        </g>
      </g>
      <g>
        <use xlink:href="#a4Nlyrjgp" opacity="1" fill="#44a6de"
             fill-opacity="1"></use>
        <g>
          <use xlink:href="#a4Nlyrjgp" opacity="1" fill-opacity="0"
               stroke="#000000" stroke-width="1" stroke-opacity="0"></use>
        </g>
      </g>
      <g>
        <use xlink:href="#c2ZkpQDAg0" opacity="1" fill="#dcdff0"
             fill-opacity="1"></use>
        <g>
          <use xlink:href="#c2ZkpQDAg0" opacity="1" fill-opacity="0"
               stroke="#000000" stroke-width="1" stroke-opacity="0"></use>
        </g>
      </g>
      <g>
        <use xlink:href="#fn7ihQSkG" opacity="1" fill="#dcdff0"
             fill-opacity="1"></use>
        <g>
          <use xlink:href="#fn7ihQSkG" opacity="1" fill-opacity="0"
               stroke="#000000" stroke-width="1" stroke-opacity="0"></use>
        </g>
      </g>
      <g>
        <use xlink:href="#b6yCKajWT" opacity="1" fill="#45a7de"
             fill-opacity="1"></use>
        <g>
          <use xlink:href="#b6yCKajWT" opacity="1" fill-opacity="0"
               stroke="#000000" stroke-width="1" stroke-opacity="0"></use>
        </g>
      </g>
      <g>
        <use xlink:href="#dbMxYJeCS" opacity="1" fill="#e7a320"
             fill-opacity="1"></use>
        <g>
          <use xlink:href="#dbMxYJeCS" opacity="1" fill-opacity="0"
               stroke="#000000" stroke-width="1" stroke-opacity="0"></use>
        </g>
      </g>
      <g>
        <use xlink:href="#b1i6pGWDN" opacity="1" fill="#44a6de"
             fill-opacity="1"></use>
        <g>
          <use xlink:href="#b1i6pGWDN" opacity="1" fill-opacity="0"
               stroke="#000000" stroke-width="1" stroke-opacity="0"></use>
        </g>
      </g>
      <g>
        <use xlink:href="#d1kLszp2fY" opacity="1" fill="#e7a320"
             fill-opacity="1"></use>
        <g>
          <use xlink:href="#d1kLszp2fY" opacity="1" fill-opacity="0"
               stroke="#000000" stroke-width="1" stroke-opacity="0"></use>
        </g>
      </g>
    </g>
  </g>
</svg>
